#!OML:ASF I:\Actors\actors\Patient Classification 1\Patient 1\Session 1\Subject1.ASF
:FULLY-SPECIFIED
:DEGREES
212
root 0.70164 17.4846 8.84138 9.75206 -8.4199 -8.61681
lowerback 3.73097 -0.143656 6.68074
upperback -8.42671 0.605984 2.10945
thorax -11.1231 -0.177211 -1.53662
lowerneck -0.501481 3.28011 2.17768
upperneck -17.0457 7.62289 20.3613
head -5.77659 2.35405 5.80023
rclavicle -1.89591e-014 5.76476e-015
rhumerus 30.7378 65.5409 -63.7789
rradius 125.878
rwrist -21.9866
rhand 30.6054 -28.3247
rfingers 7.12502
rthumb 54.2504 -46.992
lclavicle -1.89591e-014 5.76476e-015
lhumerus 7.29795 21.9424 76.5582
lradius 85.2996
lwrist 84.3065
lhand -6.56929 -6.63688
lfingers 7.12502
lthumb 19.285 22.4269
rfemur -10.7477 20.8739 23.1981
rtibia 10.2256
rfoot -11.4189 -17.4376
rtoes -4.21717
lfemur 6.51111 -44.1288 -13.0456
ltibia -4.18226
lfoot -31.3001 55.6822
ltoes 18.4588
213
root 0.703264 17.4843 8.84435 9.7518 -8.3262 -8.61966
lowerback 3.6981 -0.160764 6.78687
upperback -8.38577 0.589867 2.13437
thorax -11.0592 -0.190157 -1.56723
lowerneck -0.579362 3.26934 2.5368
upperneck -17.9514 7.5668 19.0065
head -5.98425 2.31603 5.30545
rclavicle 1.33931e-014 1.09332e-014
rhumerus 31.0891 65.4996 -63.3979
rradius 125.792
rwrist -21.9938
rhand 30.8558 -28.3325
rfingers 7.12502
rthumb 54.4746 -46.8445
lclavicle 1.33931e-014 1.09332e-014
lhumerus 6.97039 21.9633 76.1892
lradius 86.0135
lwrist 84.5366
lhand -6.85435 -6.55104
lfingers 7.12502
lthumb 19.0109 22.5399
rfemur -10.6848 20.841 23.2106
rtibia 10.1618
rfoot -11.4233 -17.5175
rtoes -4.36961
lfemur 6.45216 -44.0859 -12.9956
ltibia -4.16711
lfoot -31.0236 55.6227
ltoes 18.325
214
root 0.704806 17.4841 8.84802 9.71972 -8.25512 -8.63521
lowerback 3.69803 -0.117113 6.9235
upperback -8.28136 0.6599 2.17583
thorax -10.9362 -0.159963 -1.60935
lowerneck -0.687185 3.298 2.6816
upperneck -19.0162 7.55896 17.6161
head -6.24808 2.3138 4.83901
rclavicle -2.4202e-014 1.19271e-014
rhumerus 31.5616 65.3545 -62.7569
rradius 125.731
rwrist -21.9366
rhand 31.1223 -28.3416
rfingers 7.12502
rthumb 54.713 -46.6859
lclavicle -2.4202e-014 1.19271e-014
lhumerus 6.93524 22.0004 76.0753
lradius 86.5259
lwrist 84.8514
lhand -7.24168 -6.63306
lfingers 7.12502
lthumb 18.6384 22.494
rfemur -10.5574 20.8455 23.2529
rtibia 10.0511
rfoot -11.4122 -17.598
rtoes -4.41055
lfemur 6.47279 -44.0504 -12.9944
ltibia -4.15959
lfoot -30.6557 55.6254
ltoes 17.9567
215
root 0.705362 17.4844 8.85099 9.70721 -8.22333 -8.6733
lowerback 3.71768 -0.0185733 7.09098
upperback -8.13298 0.805814 2.21406
thorax -10.7689 -0.0932207 -1.6825
lowerneck -1.10215 3.33439 2.78864
upperneck -19.924 7.48347 16.227
head -6.40411 2.31589 4.38649
rclavicle 2.67614e-014 1.51076e-014
rhumerus 32.1206 65.0519 -62.022
rradius 125.697
rwrist -21.8466
rhand 31.3029 -28.2698
rfingers 7.12502
rthumb 54.8743 -46.499
lclavicle 2.67614e-014 1.51076e-014
lhumerus 7.15435 21.9987 76.1361
lradius 86.876
lwrist 85.0294
lhand -7.53961 -6.75298
lfingers 7.12502
lthumb 18.3518 22.4013
rfemur -10.4819 20.8622 23.3054
rtibia 9.97638
rfoot -11.4279 -17.6153
rtoes -4.04834
lfemur 6.48036 -44.0282 -12.9623
ltibia -4.14036
lfoot -30.5919 55.6086
ltoes 17.8118
216
root 0.704521 17.4846 8.85334 9.71834 -8.19703 -8.68022
lowerback 3.72815 0.0195205 7.20109
upperback -8.02458 0.864162 2.23602
thorax -10.6481 -0.0669548 -1.72913
lowerneck -1.47543 3.44112 2.87202
upperneck -20.6811 7.51315 15.0922
head -6.54039 2.36512 4.01417
rclavicle -2.00027e-015 9.0447e-015
rhumerus 32.5165 64.897 -61.6392
rradius 125.695
rwrist -21.6927
rhand 31.2999 -28.1859
rfingers 7.12502
rthumb 54.8717 -46.417
lclavicle -2.00027e-015 9.0447e-015
lhumerus 7.27186 22.1208 76.0074
lradius 87.1985
lwrist 85.1628
lhand -7.61573 -6.62298
lfingers 7.12502
lthumb 18.2786 22.5382
rfemur -10.4712 20.8469 23.307
rtibia 9.95755
rfoot -11.5092 -17.5842
rtoes -3.59983
lfemur 6.46724 -44.0818 -12.956
ltibia -4.11234
lfoot -30.9007 55.5765
ltoes 18.0841
217
root 0.703139 17.4848 8.85572 9.74517 -8.15782 -8.70272
lowerback 3.71803 0.0245124 7.31012
upperback -7.96282 0.877738 2.25395
thorax -10.5719 -0.064716 -1.77291
lowerneck -1.70481 3.50906 2.96312
upperneck -21.3882 7.50909 14.1
head -6.69028 2.38733 3.68606
rclavicle -1.70706e-014 9.14409e-015
rhumerus 32.6156 64.8769 -61.5876
rradius 125.725
rwrist -21.388
rhand 31.2313 -28.076
rfingers 7.12502
rthumb 54.8104 -46.351
lclavicle -1.70706e-014 9.14409e-015
lhumerus 7.31968 22.2968 75.8008
lradius 87.4787
lwrist 85.256
lhand -7.42918 -6.5
lfingers 7.12502
lthumb 18.458 22.6443
rfemur -10.4798 20.792 23.3304
rtibia 9.95293
rfoot -11.5428 -17.5514
rtoes -3.60885
lfemur 6.38587 -44.0451 -12.8758
ltibia -4.06981
lfoot -31.048 55.4766
ltoes 18.3183
218
root 0.700519 17.4853 8.85704 9.78467 -8.15675 -8.76698
lowerback 3.71437 0.0606641 7.42328
upperback -7.91215 0.936018 2.28391
thorax -10.5084 -0.0410343 -1.81149
lowerneck -1.93155 3.54991 3.06774
upperneck -21.8605 7.44285 13.1936
head -6.76354 2.39043 3.38332
rclavicle 2.37175e-014 -5.1684e-014
rhumerus 32.6228 64.7645 -61.5674
rradius 125.751
rwrist -21.0875
rhand 31.3929 -27.8667
rfingers 7.12502
rthumb 54.9547 -46.0381
lclavicle 2.37175e-014 -5.1684e-014
lhumerus 7.45561 22.3741 75.6855
lradius 87.6617
lwrist 85.0796
lhand -7.44352 -6.3652
lfingers 7.12502
lthumb 18.4442 22.7804
rfemur -10.5108 20.7677 23.4008
rtibia 9.9563
rfoot -11.528 -17.523
rtoes -3.86007
lfemur 6.22 -43.802 -12.6701
ltibia -4.01218
lfoot -30.7093 55.3387
ltoes 18.062
219
root 0.696552 17.4862 8.85809 9.8101 -8.17822 -8.83156
lowerback 3.75707 0.100102 7.50815
upperback -7.90464 1.00345 2.31246
thorax -10.5209 -0.0139637 -1.83657
lowerneck -1.93243 3.61566 3.10654
upperneck -22.4011 7.45713 12.4144
head -6.91137 2.41689 3.12532
rclavicle -5.04416e-015 -7.55382e-015
rhumerus 32.4855 64.6347 -61.7228
rradius 125.74
rwrist -20.9735
rhand 31.7986 -27.7883
rfingers 7.12502
rthumb 55.3163 -45.6957
lclavicle -5.04416e-015 -7.55382e-015
lhumerus 7.55731 22.4205 75.5402
lradius 87.7319
lwrist 84.7577
lhand -7.81133 -5.95681
lfingers 7.12502
lthumb 18.0904 23.2219
rfemur -10.5239 20.8081 23.476
rtibia 9.95589
rfoot -11.5257 -17.5244
rtoes -3.88798
lfemur 6.12624 -43.6266 -12.5047
ltibia -3.98653
lfoot -30.4234 55.2715
ltoes 17.7424
220
root 0.692731 17.4866 8.8611 9.81959 -8.15609 -8.82304
lowerback 3.75291 0.110897 7.54071
upperback -7.91038 1.0237 2.34349
thorax -10.524 -0.00542654 -1.82366
lowerneck -1.96597 3.66929 2.98514
upperneck -22.7002 7.4457 11.8289
head -6.98294 2.44756 2.95683
rclavicle 3.23025e-016 -2.23633e-014
rhumerus 32.3234 64.6209 -61.9206
rradius 125.683
rwrist -20.9677
rhand 32.2155 -27.8694
rfingers 7.12502
rthumb 55.687 -45.4992
lclavicle 3.23025e-016 -2.23633e-014
lhumerus 7.61852 22.5436 75.3877
lradius 87.6741
lwrist 84.4618
lhand -7.98206 -5.64743
lfingers 7.12502
lthumb 17.9261 23.5464
rfemur -10.5036 20.8392 23.4764
rtibia 9.92456
rfoot -11.5013 -17.5834
rtoes -3.87431
lfemur 6.0974 -43.6139 -12.4692
ltibia -3.98811
lfoot -30.4342 55.2316
ltoes 17.7325
221
root 0.689216 17.4863 8.86632 9.81325 -8.13398 -8.76566
lowerback 3.64426 0.115841 7.53438
upperback -7.85114 1.0191 2.39327
thorax -10.3922 0.000773548 -1.76643
lowerneck -2.10822 3.72365 2.89829
upperneck -22.7982 7.38181 11.153
head -6.96166 2.47312 2.75566
rclavicle -2.74571e-015 -1.83876e-015
rhumerus 32.5981 64.6266 -61.6378
rradius 125.63
rwrist -21.0101
rhand 32.4489 -27.9122
rfingers 7.12502
rthumb 55.8941 -45.3838
lclavicle -2.74571e-015 -1.83876e-015
lhumerus 7.79618 22.7735 75.3821
lradius 87.4754
lwrist 84.0928
lhand -7.73204 -5.59255
lfingers 7.12502
lthumb 18.1667 23.5791
rfemur -10.449 20.8383 23.4271
rtibia 9.85965
rfoot -11.4934 -17.6269
rtoes -3.82979
lfemur 6.11507 -43.64 -12.5358
ltibia -3.99463
lfoot -30.4286 55.2464
ltoes 17.6787
222
root 0.686632 17.4859 8.87274 9.79611 -8.13983 -8.74669
lowerback 3.49008 0.133892 7.58459
upperback -7.77818 1.03055 2.43521
thorax -10.2165 0.0115228 -1.75095
lowerneck -2.14509 3.81774 2.96124
upperneck -22.7833 7.35749 10.3896
head -6.91716 2.51467 2.49545
rclavicle 9.00122e-015 -1.39149e-015
rhumerus 33.0024 64.6544 -61.2112
rradius 125.607
rwrist -21.0752
rhand 32.4334 -27.9753
rfingers 7.12502
rthumb 55.8803 -45.4575
lclavicle 9.00122e-015 -1.39149e-015
lhumerus 8.02741 23.0294 75.4459
lradius 87.1193
lwrist 83.7648
lhand -7.3517 -5.57578
lfingers 7.12502
lthumb 18.5325 23.5614
rfemur -10.3578 20.8178 23.4246
rtibia 9.76542
rfoot -11.4814 -17.6106
rtoes -3.8212
lfemur 6.21907 -43.7433 -12.6362
ltibia -4.01063
lfoot -30.5734 55.3316
ltoes 17.7304
223
root 0.685346 17.4857 8.88025 9.80015 -8.14346 -8.78352
lowerback 3.28961 0.123955 7.72723
upperback -7.76262 1.00975 2.47178
thorax -10.0816 -0.00346403 -1.78744
lowerneck -2.12321 3.96906 2.96542
upperneck -22.4229 7.42133 9.8537
head -6.7829 2.60294 2.31225
rclavicle -8.59744e-015 -2.00276e-014
rhumerus 33.1993 64.8792 -61.0572
rradius 125.551
rwrist -21.1038
rhand 32.2924 -27.9929
rfingers 7.12502
rthumb 55.7552 -45.5708
lclavicle -8.59744e-015 -2.00276e-014
lhumerus 8.16628 23.3367 75.4093
lradius 86.6193
lwrist 83.6709
lhand -7.27678 -5.562
lfingers 7.12502
lthumb 18.6046 23.5683
rfemur -10.2685 20.8078 23.4796
rtibia 9.64815
rfoot -11.431 -17.602
rtoes -3.99933
lfemur 6.34753 -43.9216 -12.6873
ltibia -4.04756
lfoot -31.0764 55.3909
ltoes 18.2243
224
root 0.68838 17.4798 8.88639 10.0033 -8.305 -8.86156
lowerback 2.94878 0.203866 7.99496
upperback -7.8598 1.11072 2.50447
thorax -9.97929 0.0273022 -1.90881
lowerneck -2.16788 4.08273 2.93608
upperneck -21.6486 7.36682 9.21454
head -6.49377 2.66698 2.10944
rclavicle 3.44293e-014 2.03879e-014
rhumerus 33.208 65.1787 -61.0294
rradius 125.469
rwrist -21.198
rhand 32.181 -27.8878
rfingers 7.12502
rthumb 55.6563 -45.5409
lclavicle 3.44293e-014 2.03879e-014
lhumerus 8.24185 23.6217 75.4441
lradius 86.0613
lwrist 83.8631
lhand -7.68978 -5.29795
lfingers 7.12502
lthumb 18.2073 23.8699
rfemur -10.5089 20.7287 23.4571
rtibia 9.65607
rfoot -11.3671 -17.3668
rtoes -4.22046
lfemur 6.2627 -44.1147 -12.5944
ltibia -4.06108
lfoot -31.8162 55.5733
ltoes 18.8435
225
root 0.694932 17.4696 8.89211 10.3639 -8.62662 -8.95192
lowerback 2.46552 0.42084 8.34652
upperback -8.00541 1.38551 2.51272
thorax -9.8279 0.135838 -2.11834
lowerneck -2.121 4.16198 2.73508
upperneck -20.86 7.29553 8.68448
head -6.22684 2.72376 1.97244
rclavicle 1.41634e-014 -1.29086e-014
rhumerus 33.2024 65.3659 -60.8993
rradius 125.412
rwrist -21.404
rhand 31.9749 -27.9262
rfingers 7.12502
rthumb 55.4732 -45.717
lclavicle 1.41634e-014 -1.29086e-014
lhumerus 8.39136 23.7426 75.6118
lradius 85.4299
lwrist 84.3117
lhand -8.43593 -4.72313
lfingers 7.12502
lthumb 17.4894 24.5101
rfemur -10.9936 20.661 23.3493
rtibia 9.74089
rfoot -11.2792 -16.9874
rtoes -4.46337
lfemur 5.99651 -44.2752 -12.4226
ltibia -4.02319
lfoot -32.5993 55.8782
ltoes 19.2625
